<svg id="Calque_1" data-name="Calque 1" xmlns="http://www.w3.org/2000/svg" viewBox="0 0 115.41 29.94"><defs><style>.cls-1{fill:none;stroke:#6c4af2;stroke-linejoin:round;stroke-width:2px;}.cls-2{fill:#6c4af2;}.cls-3{fill:#fff;}.cls-4{font-size:24px;font-family:Impact;}.cls-5{font-size:8px;font-family:InkFree, Ink Free;}</style></defs><path class="cls-1" d="M18.24,14.62a.1.1,0,0,0,0,.05l0,0-.05,0-3.35,3.5-3.36-3.5h0l-.05,0h0l-.17-.23L11,14.25a4.64,4.64,0,0,1-1-2.88h0a4.78,4.78,0,0,1,9.55,0,4.69,4.69,0,0,1-1.1,3Zm-6.86.07h0Z" transform="translate(-0.67 1.76)"/><path class="cls-2" d="M7.57,17.93l.16.17a.8.8,0,0,0,.13.13h0L14.27,25a1,1,0,0,0,1.46,0l6.41-6.76,0,0,.13-.14.14-.14h0a10.1,10.1,0,1,0-14.87,0ZM15,2.76a8.33,8.33,0,0,1,6.38,13.68l-.32.36a1.07,1.07,0,0,1-.18.19L15,23.19,9.11,17a1.62,1.62,0,0,1-.18-.19l-.27-.36H8.61A8.33,8.33,0,0,1,15,2.76Z" transform="translate(-0.67 1.76)"/><path class="cls-2" d="M24.6,14.73a.87.87,0,0,0-1.16.43.89.89,0,0,0,.43,1.18c2.35,1.08,3.7,2.54,3.7,4,0,2.76-5.05,5.72-12.57,5.72s-12.56-3-12.56-5.72c0-1.45,1.34-2.91,3.69-4a.88.88,0,0,0,.43-1.17.9.9,0,0,0-1.18-.43c-3,1.41-4.71,3.39-4.71,5.6C.67,24.52,7,27.81,15,27.81s14.34-3.29,14.34-7.48C29.33,18.12,27.65,16.13,24.6,14.73Z" transform="translate(-0.67 1.76)"/><path d="M35.08,5.16h9.46A6.17,6.17,0,0,1,49,6.65a5.42,5.42,0,0,1,1.51,4.1c0,2.5-1,4.16-3.12,5L51.07,23H47l-3.15-6.66h-5V23H35.08Zm9.12,8a2.57,2.57,0,0,0,1.88-.65,2.45,2.45,0,0,0,.65-1.8A2.32,2.32,0,0,0,46.08,9a2.61,2.61,0,0,0-1.88-.63H38.85V13.2ZM58.55,23.31a6.47,6.47,0,0,1-4.94-1.74c-1.08-1.16-1.61-3-1.61-5.41s.53-4.24,1.61-5.41A6.47,6.47,0,0,1,58.55,9a5.65,5.65,0,0,1,4.55,1.77c1,1.16,1.51,3,1.51,5.38V17h-9a4.64,4.64,0,0,0,.73,2.71,2.71,2.71,0,0,0,2.26.86,2.52,2.52,0,0,0,1.79-.63,2.23,2.23,0,0,0,.71-1.77h3.51A4.63,4.63,0,0,1,62.94,22,7,7,0,0,1,58.55,23.31Zm2.36-8.68c0-1.89-.79-2.84-2.36-2.84a2.8,2.8,0,0,0-2.06.71,3.55,3.55,0,0,0-.83,2.13Zm5.4-5.31h3l.26,1.8h.19A5.18,5.18,0,0,1,74.06,9a4.54,4.54,0,0,1,3.3,1.15,4.78,4.78,0,0,1,1.22,3.66V23H75V14.58a2.46,2.46,0,0,0-.6-1.85,2.44,2.44,0,0,0-1.76-.57,2.63,2.63,0,0,0-2,.86,2.9,2.9,0,0,0-.78,2.08V23H66.31Zm18.52,14a3.29,3.29,0,0,1-2.75-1,4,4,0,0,1-.83-2.62V12.24H79.61V9.32h1.71l.6-3.84h2.89V9.32h2.36v2.92H84.81v7a1,1,0,0,0,1.12,1.12h1.24v2.5a7.4,7.4,0,0,1-1.11.28A6.13,6.13,0,0,1,84.83,23.31Zm4-19.11h3.56V14.76l4.52-5.44H101l-4.52,5.26L101.24,23H97.16l-3-5.8L92.35,19v4H88.79Zm13.38,0h3.56V7.58h-3.56Zm0,5.12h3.56V23h-3.56Zm9.89,14a3.3,3.3,0,0,1-2.76-1,4.09,4.09,0,0,1-.83-2.62V12.24h-1.64V9.32h1.71l.6-3.84H112V9.32h2.36v2.92H112v7a1,1,0,0,0,1.12,1.12h1.24v2.5a7.4,7.4,0,0,1-1.11.28A6,6,0,0,1,112.06,23.31Z" transform="translate(-0.67 1.76)"/><rect class="cls-3" x="33.96" y="2.76" width="81.45" height="26.81"/><text class="cls-4" transform="translate(35.55 21.49)">RESTO’s </text><text class="cls-5" transform="translate(68.02 27.32)">by Bmlaghui</text></svg>